<?xml version="1.0" encoding="UTF-8" standalone="no"?>
<!-- Created with Inkscape (http://www.inkscape.org/) -->

<svg
   width="25.521955mm"
   height="25.52199mm"
   viewBox="0 0 25.521955 25.52199"
   version="1.1"
   id="svg1"
   xmlns="http://www.w3.org/2000/svg"
   xmlns:svg="http://www.w3.org/2000/svg">
  <defs
     id="defs1" />
  <g
     id="layer1"
     transform="translate(-111.91875,-234.15623)">
    <path
       fill-rule="evenodd"
       clip-rule="evenodd"
       d="m 111.91875,246.91723 c 0,-7.0477 5.71329,-12.76099 12.76099,-12.76099 7.04764,0 12.76097,5.71329 12.76097,12.76099 0,7.04764 -5.71333,12.761 -12.76097,12.761 -7.0477,0 -12.76099,-5.71336 -12.76099,-12.761 z m 17.49161,-3.45454 c 0.49832,0.49836 0.49832,1.30636 0,1.80469 l -4.6996,4.6996 c -0.7219,0.7219 -1.89233,0.7219 -2.61426,0 l -2.1474,-2.14742 c -0.49833,-0.49831 -0.49833,-1.30634 0,-1.80466 0.49835,-0.49833 1.30632,-0.49833 1.80468,0 l 1.64987,1.64987 4.20206,-4.20208 c 0.49832,-0.49833 1.30635,-0.49833 1.80465,0 z"
       fill="#323232"
       id="path1-3"
       style="fill:#ff005f;fill-opacity:1;stroke-width:1.27609" />
  </g>
</svg>
