<?xml version="1.0" encoding="UTF-8" standalone="no"?>
<!-- Created with Inkscape (http://www.inkscape.org/) -->

<svg
   width="31.749998mm"
   height="31.750002mm"
   viewBox="0 0 31.749998 31.750002"
   version="1.1"
   id="svg1"
   xmlns="http://www.w3.org/2000/svg"
   xmlns:svg="http://www.w3.org/2000/svg">
  <defs
     id="defs1" />
  <g
     id="layer1"
     transform="translate(-112.7125,-86.78333)">
    <g
       id="g577"
       transform="matrix(1.0337345,0,0,1.0337345,74.716475,-299.60639)">
      <path
         opacity="0.5"
         d="m 53.648714,394.35873 c 0,-3.18534 0,-4.778 1.012022,-5.76745 1.012023,-0.9896 2.640933,-0.9896 5.898601,-0.9896 3.257669,0 4.886579,0 5.898602,0.9896 1.012022,0.98945 1.012022,2.58211 1.012022,5.76745 v 3.37853 c 0,3.18533 0,4.778 -1.012022,5.76745 -1.012023,0.9896 -2.640933,0.9896 -5.898602,0.9896 -3.257668,0 -4.886578,0 -5.898601,-0.9896 -1.012022,-0.98945 -1.012022,-2.58212 -1.012022,-5.76745 z"
         fill="#1c274c"
         id="path1-54"
         style="opacity:0.975741;fill:#00cbff;fill-opacity:1;stroke-width:1.53569" />
      <path
         d="m 36.756077,383.91601 c 0,3.18534 0,4.77801 1.012038,5.76745 1.012038,0.9896 2.640887,0.9896 5.898586,0.9896 3.257699,0 4.886549,0 5.898602,-0.9896 1.012022,-0.98944 1.012022,-2.58211 1.012022,-5.76745 v -3.37853 c 0,-3.1853 0,-4.77796 -1.012022,-5.7675 -1.012053,-0.98955 -2.640903,-0.98955 -5.898602,-0.98955 -3.257699,0 -4.886548,0 -5.898586,0.98955 -1.012038,0.98954 -1.012038,2.5822 -1.012038,5.7675 z"
         fill="#1c274c"
         id="path2-91"
         style="fill:#ff005f;fill-opacity:1;stroke-width:1.53569" />
      <path
         d="m 53.648714,379.15536 c 0,-1.66961 0,-2.50441 0.263064,-3.1629 0.350599,-0.87802 1.023233,-1.57559 1.870015,-1.93928 0.634856,-0.27275 1.439867,-0.27275 3.049889,-0.27275 h 3.455311 c 1.610022,0 2.415033,0 3.049889,0.27275 0.846782,0.36369 1.519416,1.06126 1.870015,1.93928 0.263064,0.65849 0.263064,1.49329 0.263064,3.1629 0,1.6696 0,2.50441 -0.263064,3.1629 -0.350599,0.87802 -1.023233,1.57559 -1.870015,1.93927 -0.634856,0.27276 -1.439867,0.27276 -3.049889,0.27276 h -3.455311 c -1.610022,0 -2.415033,0 -3.049889,-0.27276 -0.846782,-0.36368 -1.519416,-1.06125 -1.870015,-1.93927 -0.263064,-0.65849 -0.263064,-1.4933 -0.263064,-3.1629 z"
         fill="#1c274c"
         id="path3-7"
         style="fill:#ff005f;fill-opacity:1;stroke-width:1.53569" />
      <path
         opacity="0.5"
         d="m 36.756077,399.11938 c 0,1.66961 0,2.50441 0.263019,3.16292 0.350691,0.87795 1.023356,1.57562 1.869999,1.93927 0.634994,0.27274 1.439975,0.27274 3.04995,0.27274 h 3.455312 c 1.609976,0 2.414956,0 3.04995,-0.27274 0.846721,-0.36365 1.519355,-1.06132 1.869954,-1.93927 0.263064,-0.65851 0.263064,-1.49331 0.263064,-3.16292 0,-1.6696 0,-2.50441 -0.263064,-3.16291 -0.350599,-0.87796 -1.023233,-1.57563 -1.869954,-1.93928 -0.634994,-0.27274 -1.439974,-0.27274 -3.04995,-0.27274 h -3.455312 c -1.609975,0 -2.414956,0 -3.04995,0.27274 -0.846643,0.36365 -1.519308,1.06132 -1.869999,1.93928 -0.263019,0.6585 -0.263019,1.49331 -0.263019,3.16291 z"
         fill="#1c274c"
         id="path4-5"
         style="opacity:1;fill:#00cbff;fill-opacity:0.976471;stroke-width:1.53569" />
    </g>
  </g>
</svg>
