<?xml version="1.0" encoding="UTF-8" standalone="no"?>
<!-- Created with Inkscape (http://www.inkscape.org/) -->

<svg
   width="31.749998mm"
   height="31.584354mm"
   viewBox="0 0 31.749998 31.584354"
   version="1.1"
   id="svg1"
   xmlns="http://www.w3.org/2000/svg"
   xmlns:svg="http://www.w3.org/2000/svg">
  <defs
     id="defs1" />
  <g
     id="layer1"
     transform="translate(-35.718751,-42.068751)">
    <g
       id="g575"
       transform="matrix(0.55256389,0,0,0.55256389,-18.217741,-100.07085)">
      <path
         d="m 126.13454,257.2365 c -14.58753,0 -13.67716,6.32593 -13.67716,6.32593 l 0.018,6.55398 h 13.91957 v 1.96619 H 106.9431 c 0,0 -9.331779,-1.05941 -9.331779,13.661 0,14.71682 8.146679,14.19609 8.146679,14.19609 h 4.86251 v -6.8305 c 0,0 -0.26216,-8.14668 8.0174,-8.14668 h 13.80465 c 0,0 7.75703,0.12569 7.75703,-7.49667 v -12.60339 c 0,0 1.17792,-7.62595 -14.06501,-7.62595 z m -7.67623,4.40642 c 1.38442,0 2.50488,1.12046 2.50488,2.50488 0,1.38441 -1.12046,2.50487 -2.50488,2.50487 a 2.5012845,2.5012845 0 0 1 -2.50488,-2.50487 c 0,-1.38442 1.12047,-2.50488 2.50488,-2.50488 z"
         fill="url(#a)"
         id="path1-5"
         style="fill:#00cbff;fill-opacity:1;stroke-width:1.79561" />
      <path
         d="m 126.54753,314.39614 c 14.58754,0 13.67716,-6.32593 13.67716,-6.32593 l -0.018,-6.55398 h -13.91957 v -1.96619 h 19.45004 c 0,0 9.33358,1.05941 9.33358,-13.6592 0,-14.71862 -8.14668,-14.19609 -8.14668,-14.19609 h -4.86251 v 6.8287 c 0,0 0.26216,8.14668 -8.0174,8.14668 h -13.80464 c 0,0 -7.75704,-0.12569 -7.75704,7.49667 v 12.60339 c 0,0 -1.17792,7.62595 14.06501,7.62595 z m 7.67623,-4.40642 a 2.5012845,2.5012845 0 0 1 -2.50487,-2.50488 c 0,-1.38262 1.12046,-2.50308 2.50487,-2.50308 1.38442,0 2.50488,1.11867 2.50488,2.50308 0,1.38621 -1.12046,2.50488 -2.50488,2.50488 z"
         fill="url(#b)"
         id="path2-3"
         style="fill:#ff005f;fill-opacity:1;stroke-width:1.79561" />
    </g>
  </g>
</svg>
