<?xml version="1.0" encoding="UTF-8" standalone="no"?>
<!-- Created with Inkscape (http://www.inkscape.org/) -->

<svg
   width="27.781248mm"
   height="34.726562mm"
   viewBox="0 0 27.781248 34.726562"
   version="1.1"
   id="svg1"
   xmlns="http://www.w3.org/2000/svg"
   xmlns:svg="http://www.w3.org/2000/svg">
  <defs
     id="defs1" />
  <g
     id="layer1"
     transform="translate(-103.44527,-144.1107)">
    <g
       id="g22"
       transform="matrix(1.0869675,0,0,1.0869675,61.569351,-402.20388)">
      <g
         style="fill:#00cbff;fill-opacity:1"
         id="g584"
         transform="matrix(1.5974057,0,0,1.5974057,32.135833,499.40953)">
        <path
           fill-rule="evenodd"
           clip-rule="evenodd"
           d="M 12.0516,2 H 11.9484 C 10.2682,1.99999 8.93732,1.99997 7.89575,2.14245 6.82382,2.28908 5.95621,2.59803 5.27199,3.29418 4.58778,3.99033 4.28413,4.87308 4.14001,5.9637 3.99997,7.02343 3.99999,8.37751 4,10.087 v 3.8259 c -1e-5,1.7096 -3e-5,3.0637 0.14001,4.1234 0.14412,1.0906 0.44777,1.9734 1.13198,2.6695 0.68422,0.6962 1.55183,1.0051 2.62376,1.1517 C 8.93731,22 10.2682,22 11.9484,22 h 0.1032 c 1.6802,0 3.0111,0 4.0527,-0.1425 1.0719,-0.1466 1.9395,-0.4555 2.6237,-1.1517 0.6842,-0.6961 0.9879,-1.5789 1.132,-2.6695 C 20,16.9766 20,15.6225 20,13.913 V 10.0871 C 20,8.37754 20,7.02343 19.86,5.9637 19.7159,4.87308 19.4122,3.99033 18.728,3.29418 18.0438,2.59803 17.1762,2.28908 16.1043,2.14245 15.0627,1.99997 13.7318,1.99999 12.0516,2 Z M 8.57143,18.5116 c 0,-0.3853 0.307,-0.6976 0.68571,-0.6976 h 5.48576 c 0.3787,0 0.6857,0.3123 0.6857,0.6976 0,0.3853 -0.307,0.6977 -0.6857,0.6977 H 9.25714 c -0.37871,0 -0.68571,-0.3124 -0.68571,-0.6977 z"
           fill="#1c274c"
           id="path1-8"
           style="fill:#00cbff;fill-opacity:1" />
      </g>
      <path
         d="m 51.253815,508.42568 c -3.795673,0 -3.558789,1.646 -3.558789,1.646 l 0.0042,1.70535 h 3.621865 v 0.5116 h -5.061362 c 0,0 -2.428121,-0.27565 -2.428121,3.55458 0,3.82931 2.119765,3.69383 2.119765,3.69383 h 1.265217 v -1.7773 c 0,0 -0.06821,-2.11976 2.086129,-2.11976 h 3.592131 c 0,0 2.018382,0.0327 2.018382,-1.95064 v -3.27939 c 0,0 0.306493,-1.98427 -3.659712,-1.98427 z m -1.997358,1.14655 c 0.360233,0 0.651774,0.29154 0.651774,0.65176 0,0.36022 -0.291541,0.65177 -0.651774,0.65177 a 0.65083297,0.65083297 0 0 1 -0.651763,-0.65177 c 0,-0.36022 0.29155,-0.65176 0.651763,-0.65176 z"
         fill="url(#a)"
         id="path1-5-4-0"
         style="fill:#ff005f;fill-opacity:1;stroke:#ffffff;stroke-width:1.778;stroke-dasharray:none;stroke-opacity:1" />
      <path
         d="m 51.362564,523.19947 c 3.795677,0 3.558798,-1.646 3.558798,-1.646 l -0.0042,-1.70534 h -3.621867 v -0.51161 h 5.060895 c 0,0 2.428589,0.27566 2.428589,-3.55411 0,-3.82978 -2.119754,-3.69383 -2.119754,-3.69383 h -1.265228 v 1.77684 c 0,0 0.06821,2.11976 -2.086129,2.11976 h -3.591956 c 0,0 -2.018382,-0.0327 -2.018382,1.95063 v 3.27939 c 0,0 -0.306493,1.98427 3.659712,1.98427 z m 1.997356,-1.14655 a 0.65083297,0.65083297 0 0 1 -0.651763,-0.65177 c 0,-0.35975 0.29154,-0.6513 0.651763,-0.6513 0.360223,0 0.651769,0.29108 0.651769,0.6513 0,0.3607 -0.291546,0.65177 -0.651769,0.65177 z"
         fill="url(#b)"
         id="path2-3-0"
         style="fill:#ffffff;fill-opacity:1;stroke-width:0.467217" />
      <path
         d="m 51.255109,508.32656 c -3.795673,0 -3.558789,1.646 -3.558789,1.646 l 0.0042,1.70535 h 3.621865 v 0.5116 h -5.061362 c 0,0 -2.428121,-0.27565 -2.428121,3.55458 0,3.82931 2.119765,3.69383 2.119765,3.69383 h 1.265217 v -1.7773 c 0,0 -0.06821,-2.11976 2.086129,-2.11976 h 3.592131 c 0,0 2.018382,0.0327 2.018382,-1.95064 v -3.27939 c 0,0 0.306493,-1.98427 -3.659712,-1.98427 z m -1.997358,1.14655 c 0.360233,0 0.651774,0.29154 0.651774,0.65176 0,0.36022 -0.291541,0.65177 -0.651774,0.65177 a 0.65083297,0.65083297 0 0 1 -0.651763,-0.65177 c 0,-0.36022 0.29155,-0.65176 0.651763,-0.65176 z"
         fill="url(#a)"
         id="path1-5-4"
         style="fill:#ff005f;fill-opacity:1;stroke-width:0.467217" />
    </g>
  </g>
</svg>
