<?xml version="1.0" encoding="UTF-8" standalone="no"?>
<!-- Created with Inkscape (http://www.inkscape.org/) -->

<svg
   width="31.749998mm"
   height="31.750002mm"
   viewBox="0 0 31.749998 31.750002"
   version="1.1"
   id="svg1"
   xmlns="http://www.w3.org/2000/svg"
   xmlns:svg="http://www.w3.org/2000/svg">
  <defs
     id="defs1" />
  <g
     id="layer1"
     transform="translate(-38.364583,-110.59584)">
    <g
       id="g578"
       transform="matrix(1.1547744,0,0,1.1547744,-2.4539415,-64.521279)">
      <path
         opacity="0.5"
         d="m 51.915283,151.64617 c 2.309817,-1e-5 4.139441,-4e-5 5.571357,0.19583 1.473571,0.20158 2.666284,0.6263 3.606873,1.58332 0.940588,0.95702 1.358093,2.17056 1.556191,3.66986 0.192462,1.45683 0.192462,3.31835 0.192462,5.66842 v 1.3e-4 5.25957 0 c 0,2.3501 0,4.21162 -0.192462,5.66842 -0.198098,1.49927 -0.615603,2.71288 -1.556191,3.66983 -0.940589,0.95709 -2.133302,1.38174 -3.606873,1.58327 -1.431916,0.1959 -3.26154,0.1959 -5.57122,0.1959 h -1.37e-4 -0.141872 -1.38e-4 c -2.309817,0 -4.139304,0 -5.571151,-0.1959 -1.473612,-0.20153 -2.666339,-0.62618 -3.606955,-1.58327 -0.940602,-0.95695 -1.358038,-2.17056 -1.556164,-3.66983 -0.192503,-1.4568 -0.192489,-3.31832 -0.192476,-5.66842 v -1.4e-4 -5.25956 0 c -1.3e-5,-2.3501 -2.7e-5,-4.21158 0.192476,-5.66842 0.198126,-1.4993 0.615562,-2.71284 1.556164,-3.66986 0.940616,-0.95702 2.133343,-1.38174 3.606955,-1.58332 1.431847,-0.19587 3.261472,-0.19584 5.571289,-0.19583 v 0 z"
         fill="#1c274c"
         id="path1-1"
         style="opacity:1;fill:#00cbff;fill-opacity:1;stroke-width:1.37473" />
      <path
         d="m 49.094892,173.9855 c -0.569412,0 -1.031046,0.46163 -1.031046,1.03104 0,0.56941 0.461634,1.03105 1.031046,1.03105 h 6.873637 c 0.569412,0 1.031045,-0.46164 1.031045,-1.03105 0,-0.56941 -0.461633,-1.03104 -1.031045,-1.03104 z"
         fill="#1c274c"
         id="path2-1"
         style="fill:#f9f9f9;fill-opacity:1;stroke-width:1.37473" />
      <path
         d="m 35.347618,168.83027 c 0,-1.93081 0,-2.89614 0.463365,-3.58955 0.200601,-0.30024 0.458362,-0.55801 0.758575,-0.75858 0.693481,-0.46342 1.658856,-0.46342 3.589606,-0.46342 1.930749,0 2.896124,0 3.589605,0.46342 0.300213,0.20057 0.557975,0.45834 0.758575,0.75858 0.463366,0.69341 0.463366,1.65874 0.463366,3.58955 v 5.49891 c 0,1.9308 0,2.89614 -0.463366,3.58955 -0.2006,0.30024 -0.458362,0.558 -0.758575,0.75857 -0.693481,0.46342 -1.658856,0.46342 -3.589605,0.46342 -1.93075,0 -2.896125,0 -3.589606,-0.46342 -0.300213,-0.20057 -0.557974,-0.45833 -0.758575,-0.75857 -0.463365,-0.69341 -0.463365,-1.65875 -0.463365,-3.58955 z"
         fill="#1c274c"
         id="path3-0"
         style="fill:#ff005f;fill-opacity:1;stroke-width:1.37473" />
      <circle
         style="opacity:1;fill:#f9f9f9;fill-opacity:1;stroke:#999999;stroke-width:0;stroke-linecap:square;stroke-linejoin:round"
         id="path578"
         cx="40.118565"
         cy="176.5685"
         r="0.889" />
    </g>
  </g>
</svg>
