<?xml version="1.0" encoding="UTF-8" standalone="no"?>
<!-- Created with Inkscape (http://www.inkscape.org/) -->

<svg
   width="31.749998mm"
   height="25.571825mm"
   viewBox="0 0 31.749998 25.571825"
   version="1.1"
   id="svg1"
   xmlns="http://www.w3.org/2000/svg"
   xmlns:svg="http://www.w3.org/2000/svg">
  <defs
     id="defs1" />
  <g
     id="layer1"
     transform="translate(-162.18958,-155.83956)">
    <g
       id="g2"
       transform="matrix(0.97938529,0,0,0.96417567,126.22894,-454.62142)">
      <path
         d="m 52.926461,650.82421 a 4.4203225,4.4203225 0 1 0 4.420323,4.42033 4.4233062,4.4233062 0 0 0 -4.420323,-4.42033 z"
         id="path1-18"
         style="fill:#ff005f;fill-opacity:1;stroke-width:0.36836" />
      <path
         d="m 43.572138,645.89883 a 2.2099531,2.2099531 0 1 0 3.133935,3.11673 8.9238208,8.9238208 0 0 1 12.440776,0 2.1921853,2.1921853 0 0 0 1.566968,0.652 2.2101613,2.2101613 0 0 0 1.566967,-3.76832 c -5.016034,-5.05096 -13.692612,-5.05096 -18.708646,-4.1e-4 z"
         id="path2-11"
         style="fill:#00cbff;fill-opacity:1;stroke-width:0.36836" />
      <path
         d="m 68.497047,639.69137 a 21.785265,21.785265 0 0 0 -31.140804,0 2.2099527,2.2099527 0 1 0 3.142555,3.10804 c 6.673656,-6.75134 18.182039,-6.75134 24.855695,0 a 2.2099524,2.2099524 0 1 0 3.142554,-3.10804 z"
         id="path3-5"
         style="fill:#00cbff;fill-opacity:1;stroke-width:0.36836" />
    </g>
  </g>
</svg>
